<?xml version="1.0" encoding="utf-8"?>
<!-- Generator: Adobe Illustrator 17.1.0, SVG Export Plug-In . SVG Version: 6.00 Build 0)  -->
<!DOCTYPE svg PUBLIC "-//W3C//DTD SVG 1.1//EN" "http://www.w3.org/Graphics/SVG/1.1/DTD/svg11.dtd">
<svg version="1.1" id="Layer_1" xmlns="http://www.w3.org/2000/svg" xmlns:xlink="http://www.w3.org/1999/xlink" x="0px" y="0px"
	 viewBox="0 0 512 512" enable-background="new 0 0 512 512" xml:space="preserve">
<path fill="#D81F00" d="M259.9,457.1c-109.8,0-199.1-89.3-199.1-199.1c0-109.8,89.3-199.1,199.1-199.1c109.8,0,199.1,89.3,199.1,199.1
	C459,367.7,369.7,457.1,259.9,457.1z M259.9,88.6c-93.4,0-169.3,75.9-169.3,169.3c0,93.4,75.9,169.3,169.3,169.3
	c93.4,0,169.3-75.9,169.3-169.3C429.2,164.6,353.2,88.6,259.9,88.6z"/>
<path fill="#D81F00" d="M260.9,292.5c-9,0-17.1-8.2-17.1-17.1V165.9c0-9,8.2-17.1,17.1-17.1c9,0,17.1,8.2,17.1,17.1v109.5
	C278,284.3,269.8,292.5,260.9,292.5z"/>
<path fill="#D81F00" d="M260.9,370.3c-10.6,0-20.3-9.7-20.3-20.3s9.7-20.3,20.3-20.3c10.6,0,20.3,9.7,20.3,20.3
	S271.5,370.3,260.9,370.3z"/>
</svg>
