<?xml version="1.0" encoding="utf-8"?>
<!-- Generator: Adobe Illustrator 18.1.1, SVG Export Plug-In . SVG Version: 6.00 Build 0)  -->
<svg version="1.1" id="Layer_1" xmlns="http://www.w3.org/2000/svg" xmlns:xlink="http://www.w3.org/1999/xlink" x="0px" y="0px"
	 viewBox="0 0 512 512" enable-background="new 0 0 512 512" xml:space="preserve">
<g id="Your_Icon_2_">
	<path fill="#7CB36F" d="M255.5,4C116.6,4,4,116.6,4,255.5C4,394.4,116.6,507,255.5,507C394.4,507,507,394.4,507,255.5C507,116.6,394.4,4,255.5,4z
		 M255.5,452.3c-108.7,0-196.8-88.1-196.8-196.8c0-108.7,88.1-196.8,196.8-196.8c108.7,0,196.8,88.1,196.8,196.8
		C452.3,364.2,364.2,452.3,255.5,452.3z"/>
	<circle fill="#7CB36F" cx="181.7" cy="194.6" r="36.5"/>
	<circle fill="#7CB36F" cx="329.3" cy="194.6" r="36.5"/>
	<path fill="#7CB36F" d="M369.4,298.6c-11.6-7.1-26.7-3.4-33.8,8.1c-14.8,24.2-46.3,39.9-80.1,39.9s-65.3-15.6-80.1-39.9
		c-7.1-11.6-22.2-15.2-33.8-8.1c-11.6,7.1-15.2,22.2-8.1,33.8c23.9,39.1,70.7,63.4,122.1,63.4s98.2-24.3,122.1-63.4
		C384.7,320.8,381,305.7,369.4,298.6z"/>
</g>
</svg>
